<svg id="Layer_1" data-name="Layer 1" xmlns="http://www.w3.org/2000/svg" viewBox="0 0 1920 1050"><defs><style>.cls-1{fill:#f6f6f6;}.cls-2,.cls-3{fill:#91ba9b;}.cls-2{stroke:#010101;stroke-miterlimit:10;}</style></defs><title>homeimage</title><rect class="cls-1" width="1920" height="1050"/><g id="Layer_1-2" data-name="Layer 1"><path class="cls-2" d="M1291.55,373.91l-.19.16" transform="translate(0 0)"/><path class="cls-3" d="M1272.65,459.16c-9.47-1.73-19.25-1.63-29.19-2.38l-25.25,12.29c-5.87,5.22-12.81,9.47-17.84,15.36-18.5,21.63-11.91,56.35,15.15,71.72-10.1-21.53,1.53-34.12,13.28-46.66l24.07-10c20.81-5,38.89,4.9,44.8,24.24,7.49,24.39-3.93,49.89-26.91,58.5v-.19l-23.38,9c-7.22,0-13.79.29-20.33,0-25.25-1.24-44.19-13.47-53.6-31.57-34.76-55.11-22.89-88-22.22-89.79a114.87,114.87,0,0,0-13.11,32.95c-11.3,51,13.89,108.5,80.49,117.47,11.09,1.49,22.56.21,34.34.21l27.49-9.2c28.34-17.36,46.29-41.31,48.55-75.75C1331.55,496.49,1309.69,465.91,1272.65,459.16Z" transform="translate(0 0)"/><path class="cls-3" d="M1249.74,722.27h0c-1.73.71-3.54,1.34-5.43,2-35.27,11.3-62.1-18.94-65.39-44.48-1.79-14,4.42-25.26,15.76-32.83,10.53-7.09,22.31-8.67,34.18-1.64,13.85,8.2,18.48,27.21,9.93,42.3-1.34,2.37-2.84,4.65-4.71,7.7,14.88,1.58,28.2-11.75,28.37-26.85C1266.28,710.4,1250.62,721.66,1249.74,722.27Z" transform="translate(0 0)"/><path class="cls-3" d="M1285,668.58c-3,28-12.62,44.64-35.22,53.69.88-.61,16.54-11.87,12.62-53.83h0a24.71,24.71,0,0,0-.31-4.21c-.21-1.41-.45-2.77-.7-4.11v-.31c-2.31-13.13-5.6-26.14-8.42-39.4l27.49-9.19c-3.77,2.31-3.08,4.38-2.34,7.34C1282.18,634.91,1286.79,651.37,1285,668.58Z" transform="translate(0 0)"/><path class="cls-3" d="M1220.93,465.45a3.11,3.11,0,0,0,.29-1.56c-.84-6-2.46-12-3.79-17.95l-1.87-1.33,26-27.35c-.8,1-1.58,2.1-2.36,3.05a9.73,9.73,0,0,0-2.1,6.71c1.81,10,4.21,20,6.31,29.67L1218.17,469A11.45,11.45,0,0,0,1220.93,465.45Z" transform="translate(0 0)"/><path class="cls-3" d="M1229.11,385.21,1203.86,409c1.05-1,2.1-2.11,3.09-3.1a9.68,9.68,0,0,0,1.33-7.83c-6.31-23.88-7.7-47.91.34-71.54,5.34-15.66,13-29.63,24-40.79h0c1.49-1.18,9.07-5.57,22.2,13.18C1227.79,316.29,1219.07,354.82,1229.11,385.21Z" transform="translate(0 0)"/><path class="cls-3" d="M1286.92,337.48c-4,23.78-16.67,43.06-30.75,61.68-4.67,6.31-9.78,12.08-14.6,18.18l-26,27.36-12.77,13.91c-14.19,15.23-26.69,31.29-32.71,51.83-5.36,18.27-3.78,35.31,3.27,49-34.66-55.09-22.79-88-22.12-89.77h0A213.55,213.55,0,0,1,1179,433.19c7.66-8.42,16.36-15.85,24.48-23.82l.29-.3L1229,385.29v.25a139.29,139.29,0,0,0,10.52-10.1h0c12-12.85,20.68-27.61,23.76-45.7a35.8,35.8,0,0,0-8.44-30.81c-13.13-18.75-20.71-14.35-22.2-13.18a82.83,82.83,0,0,1,24-16.83c5.53-2.59,9.49-1.73,13.15,3.18C1284.44,291.6,1291,313,1286.92,337.48Z" transform="translate(0 0)"/><path class="cls-2" d="M1173.45,559.51l-.1-.14" transform="translate(0 0)"/><path class="cls-3" d="M1270.65,582.07l-23.38,9c-5.66-28.31-11-54.72-16.28-81.27l-2.26-.28,24.14-10C1258.74,527,1264.7,554.46,1270.65,582.07Z" transform="translate(0 0)"/><path class="cls-3" d="M1435.57,566.35,1378,464.75c3.26-1.91,6.14-3.7,9.15-5.26a3.16,3.16,0,0,1,2.84.13c8.42,7.72,19.4,9.72,29.67,13.19,9.18,3.12,18.94,4.8,27.59,9,25.57,12.46,33.67,33.67,29.19,61.36-.21,1.31-1.73,2.4-2.63,3.6-.82-1.39-2.11-2.69-2.38-4.21-2-18.43-11.47-31.92-27.21-41-10.52-6-22-7.79-34.72-6.44,3.87,6.76,7.34,13,11,19.19,12,20.31,24,40.64,36.23,60.86a21.68,21.68,0,0,1,2.44,17.7A47.6,47.6,0,0,1,1434.42,624c-13,6.65-32.37-2.69-36.18-17.78-4.38-17.47,3.68-34.47,24-38C1426.59,567.49,1430.92,567,1435.57,566.35Z" transform="translate(0 0)"/><path class="cls-3" d="M1531.72,228.94c13.47,13.7,26.33,26.81,39.21,40,8.27,8.42,16.52,16.83,25,25,3,2.9,3.59,5.18,1.74,9.36-14,31.93-27.54,64-41.29,96-3.49,8.12-7,16.22-10.75,24.24-5.39,11.55-15.89,14.31-27.19,14.73a51.2,51.2,0,0,1-26.51-6.31c-14-7.51-20.46-26.31-13.47-39.73a30.12,30.12,0,0,1,40.84-12.07c.47.26.94.53,1.39.81,7.2,4.46,13.18,10.88,19.89,16.58,3.91-8.61,8.27-18.16,12.63-27.73,5-11.24,10.08-22.46,14.9-33.78a6.32,6.32,0,0,0-.11-5.47c-15.59-16.23-31.42-32.22-47.81-48.89-2.27,4.53-4.21,8.42-6.31,12.42-11.87,23.91-23.55,47.94-35.78,71.55a20,20,0,0,1-10.35,9,50.54,50.54,0,0,1-42.28-3.37c-14.46-7.94-19.87-23.3-13.51-36.6a31.12,31.12,0,0,1,38.91-15c8.92,3.45,15.26,10,21,17.15.76.91,1.5,1.81,2.63,3.22Zm2.11,28.05c-6.48,9-6.53,9,.1,16q13,13.74,26.16,27.36c5.3,5.51,10.69,10.94,16.16,16.5,5.68-9.6,5.73-9.62-1.3-17.07q-12.1-12.81-24.33-25.51c-5.56-5.72-11.11-11.36-16.88-17.27Z" transform="translate(0 0)"/><path class="cls-3" d="M1644,476.87c-5.47-37.1-11-74.49-16.6-112.83,3.79,0,7.28-.17,10.71.14.76,0,1.77,1.84,1.94,2.95q4.79,28.89,9.4,57.81c3.47,21.34,6.78,42.7,10.52,64,2.4,13.49-2.1,23.59-13.23,31.13-13.72,9.21-30.18,8.41-41.23-2.11-10.73-10.14-13.21-30.6-2.1-40.63a25.22,25.22,0,0,1,22.85-6A149,149,0,0,1,1644,476.87Z" transform="translate(0 0)"/></g></svg>