<svg id="Layer_1" data-name="Layer 1" xmlns="http://www.w3.org/2000/svg" viewBox="0 0 609 420"><defs><style>.cls-1{fill:#abd6ba;}.cls-2{fill:#ecedef;}</style></defs><title>vector</title><path class="cls-1" d="M233,511H210a53.23,53.23,0,0,0-5.71-1c-11.39-.78-22.91-.66-34.17-2.36-23.65-3.57-46.32-10.94-68.75-19.25C65.15,475,30.28,458.68-4,441V91H556c6.45,11.61,13.47,22.94,19.18,34.9,6.34,13.29,12,27,17,40.81,3.71,10.23,6.12,20.95,8.84,31.51,1.6,6.19,2.68,12.52,4,18.78v24c-.67,2.53-1.49,5-2,7.58-4.44,23.19-16.77,39.8-40.27,45.8a133.3,133.3,0,0,1-32.37,4.35c-16.54,0-33.07-2.24-49.62-2.51a319.2,319.2,0,0,0-39.71,1.86c-29.57,3.25-48.07,21.3-57.52,48-5.7,16.1-7.83,33.47-11.55,50.28-3.33,15.08-6.4,30.28-14.93,43.53-8.79,13.64-20,25.09-32.11,35.87-22.29,19.87-48.27,30.65-77.84,33.32C242.38,509.52,237.7,510.36,233,511Z" transform="translate(4 -91)"/><path class="cls-2" d="M233,511c4.7-.64,9.38-1.48,14.1-1.9,29.57-2.67,55.55-13.45,77.84-33.32C337,465,348.26,453.55,357.05,439.91c8.53-13.25,11.6-28.45,14.93-43.53,3.72-16.81,5.85-34.18,11.55-50.28,9.45-26.72,28-44.77,57.52-48a319.2,319.2,0,0,1,39.71-1.86c16.55.27,33.08,2.56,49.62,2.51a133.3,133.3,0,0,0,32.37-4.35c23.5-6,35.83-22.61,40.27-45.8.49-2.56,1.31-5.05,2-7.58V511Z" transform="translate(4 -91)"/><path class="cls-2" d="M-4,441c34.28,17.68,69.15,34,105.37,47.41,22.43,8.31,45.1,15.68,68.75,19.25,11.26,1.7,22.78,1.58,34.17,2.36a53.23,53.23,0,0,1,5.71,1H-4Z" transform="translate(4 -91)"/><path class="cls-2" d="M605,217c-1.31-6.26-2.39-12.59-4-18.78-2.72-10.56-5.13-21.28-8.84-31.51-5-13.84-10.65-27.52-17-40.81-5.71-12-12.73-23.29-19.18-34.9h49Z" transform="translate(4 -91)"/></svg>